<svg xmlns="http://www.w3.org/2000/svg" viewBox="0 0 900 900" width="900" height="900">
<rect width="900" height="900" fill="#f7f4ec"/>
<text x="450" y="24" font-size="18" font-family="sans-serif" text-anchor="middle" fill="#333">삼국지2 웹 · 41개 주 지도 (데이터 검수용, 서→동 / 북→남)</text>
<line x1="745.2" y1="105.6" x2="614.0" y2="171.2" stroke="#bbb" stroke-width="1.5"/>
<line x1="614.0" y1="171.2" x2="564.8" y2="261.4" stroke="#bbb" stroke-width="1.5"/>
<line x1="564.8" y1="261.4" x2="548.4" y2="318.8" stroke="#bbb" stroke-width="1.5"/>
<line x1="564.8" y1="261.4" x2="507.4" y2="286.0" stroke="#bbb" stroke-width="1.5"/>
<line x1="548.4" y1="318.8" x2="630.4" y2="335.2" stroke="#bbb" stroke-width="1.5"/>
<line x1="548.4" y1="318.8" x2="507.4" y2="359.8" stroke="#bbb" stroke-width="1.5"/>
<line x1="548.4" y1="318.8" x2="507.4" y2="286.0" stroke="#bbb" stroke-width="1.5"/>
<line x1="507.4" y1="286.0" x2="425.4" y2="245.0" stroke="#bbb" stroke-width="1.5"/>
<line x1="507.4" y1="286.0" x2="507.4" y2="359.8" stroke="#bbb" stroke-width="1.5"/>
<line x1="425.4" y1="245.0" x2="359.8" y2="384.4" stroke="#bbb" stroke-width="1.5"/>
<line x1="425.4" y1="245.0" x2="441.8" y2="384.4" stroke="#bbb" stroke-width="1.5"/>
<line x1="630.4" y1="335.2" x2="622.2" y2="392.6" stroke="#bbb" stroke-width="1.5"/>
<line x1="507.4" y1="359.8" x2="491.0" y2="392.6" stroke="#bbb" stroke-width="1.5"/>
<line x1="491.0" y1="392.6" x2="441.8" y2="384.4" stroke="#bbb" stroke-width="1.5"/>
<line x1="491.0" y1="392.6" x2="491.0" y2="425.4" stroke="#bbb" stroke-width="1.5"/>
<line x1="441.8" y1="384.4" x2="359.8" y2="384.4" stroke="#bbb" stroke-width="1.5"/>
<line x1="441.8" y1="384.4" x2="450.0" y2="450.0" stroke="#bbb" stroke-width="1.5"/>
<line x1="441.8" y1="384.4" x2="491.0" y2="425.4" stroke="#bbb" stroke-width="1.5"/>
<line x1="491.0" y1="425.4" x2="507.4" y2="458.2" stroke="#bbb" stroke-width="1.5"/>
<line x1="491.0" y1="425.4" x2="450.0" y2="450.0" stroke="#bbb" stroke-width="1.5"/>
<line x1="491.0" y1="425.4" x2="548.4" y2="409.0" stroke="#bbb" stroke-width="1.5"/>
<line x1="507.4" y1="458.2" x2="540.2" y2="466.4" stroke="#bbb" stroke-width="1.5"/>
<line x1="507.4" y1="458.2" x2="450.0" y2="450.0" stroke="#bbb" stroke-width="1.5"/>
<line x1="548.4" y1="409.0" x2="622.2" y2="392.6" stroke="#bbb" stroke-width="1.5"/>
<line x1="548.4" y1="409.0" x2="581.2" y2="425.4" stroke="#bbb" stroke-width="1.5"/>
<line x1="581.2" y1="425.4" x2="622.2" y2="392.6" stroke="#bbb" stroke-width="1.5"/>
<line x1="581.2" y1="425.4" x2="540.2" y2="466.4" stroke="#bbb" stroke-width="1.5"/>
<line x1="359.8" y1="384.4" x2="310.6" y2="335.2" stroke="#bbb" stroke-width="1.5"/>
<line x1="359.8" y1="384.4" x2="310.6" y2="466.4" stroke="#bbb" stroke-width="1.5"/>
<line x1="359.8" y1="384.4" x2="277.8" y2="400.8" stroke="#bbb" stroke-width="1.5"/>
<line x1="310.6" y1="335.2" x2="277.8" y2="400.8" stroke="#bbb" stroke-width="1.5"/>
<line x1="310.6" y1="335.2" x2="220.4" y2="318.8" stroke="#bbb" stroke-width="1.5"/>
<line x1="277.8" y1="400.8" x2="310.6" y2="466.4" stroke="#bbb" stroke-width="1.5"/>
<line x1="277.8" y1="400.8" x2="187.6" y2="384.4" stroke="#bbb" stroke-width="1.5"/>
<line x1="220.4" y1="318.8" x2="187.6" y2="384.4" stroke="#bbb" stroke-width="1.5"/>
<line x1="310.6" y1="466.4" x2="277.8" y2="499.2" stroke="#bbb" stroke-width="1.5"/>
<line x1="277.8" y1="499.2" x2="236.8" y2="540.2" stroke="#bbb" stroke-width="1.5"/>
<line x1="277.8" y1="499.2" x2="310.6" y2="564.8" stroke="#bbb" stroke-width="1.5"/>
<line x1="236.8" y1="540.2" x2="310.6" y2="564.8" stroke="#bbb" stroke-width="1.5"/>
<line x1="236.8" y1="540.2" x2="261.4" y2="638.6" stroke="#bbb" stroke-width="1.5"/>
<line x1="310.6" y1="564.8" x2="261.4" y2="638.6" stroke="#bbb" stroke-width="1.5"/>
<line x1="310.6" y1="564.8" x2="368.0" y2="548.4" stroke="#bbb" stroke-width="1.5"/>
<line x1="368.0" y1="548.4" x2="409.0" y2="548.4" stroke="#bbb" stroke-width="1.5"/>
<line x1="261.4" y1="638.6" x2="212.2" y2="687.8" stroke="#bbb" stroke-width="1.5"/>
<line x1="450.0" y1="450.0" x2="425.4" y2="474.6" stroke="#bbb" stroke-width="1.5"/>
<line x1="425.4" y1="474.6" x2="433.6" y2="507.4" stroke="#bbb" stroke-width="1.5"/>
<line x1="433.6" y1="507.4" x2="409.0" y2="548.4" stroke="#bbb" stroke-width="1.5"/>
<line x1="409.0" y1="548.4" x2="507.4" y2="540.2" stroke="#bbb" stroke-width="1.5"/>
<line x1="409.0" y1="548.4" x2="450.0" y2="605.8" stroke="#bbb" stroke-width="1.5"/>
<line x1="409.0" y1="548.4" x2="376.2" y2="581.2" stroke="#bbb" stroke-width="1.5"/>
<line x1="376.2" y1="581.2" x2="450.0" y2="605.8" stroke="#bbb" stroke-width="1.5"/>
<line x1="376.2" y1="581.2" x2="392.6" y2="638.6" stroke="#bbb" stroke-width="1.5"/>
<line x1="450.0" y1="605.8" x2="507.4" y2="540.2" stroke="#bbb" stroke-width="1.5"/>
<line x1="450.0" y1="605.8" x2="450.0" y2="663.2" stroke="#bbb" stroke-width="1.5"/>
<line x1="450.0" y1="605.8" x2="392.6" y2="638.6" stroke="#bbb" stroke-width="1.5"/>
<line x1="450.0" y1="663.2" x2="392.6" y2="638.6" stroke="#bbb" stroke-width="1.5"/>
<line x1="540.2" y1="466.4" x2="540.2" y2="507.4" stroke="#bbb" stroke-width="1.5"/>
<line x1="540.2" y1="507.4" x2="507.4" y2="540.2" stroke="#bbb" stroke-width="1.5"/>
<line x1="540.2" y1="507.4" x2="605.8" y2="491.0" stroke="#bbb" stroke-width="1.5"/>
<line x1="605.8" y1="491.0" x2="507.4" y2="540.2" stroke="#bbb" stroke-width="1.5"/>
<line x1="605.8" y1="491.0" x2="646.8" y2="523.8" stroke="#bbb" stroke-width="1.5"/>
<line x1="646.8" y1="523.8" x2="671.4" y2="564.8" stroke="#bbb" stroke-width="1.5"/>
<circle cx="745.2" cy="105.6" r="11" fill="#6b8cae" stroke="#333" stroke-width="1.5"/>
<text x="745.2" y="89.6" font-size="15" font-family="sans-serif" text-anchor="middle" fill="#111">양평</text>
<circle cx="614.0" cy="171.2" r="11" fill="#6b8cae" stroke="#333" stroke-width="1.5"/>
<text x="614.0" y="155.2" font-size="15" font-family="sans-serif" text-anchor="middle" fill="#111">북평</text>
<circle cx="564.8" cy="261.4" r="11" fill="#5a9367" stroke="#333" stroke-width="1.5"/>
<text x="564.8" y="245.4" font-size="15" font-family="sans-serif" text-anchor="middle" fill="#111">남피</text>
<circle cx="548.4" cy="318.8" r="11" fill="#7aa06a" stroke="#333" stroke-width="1.5"/>
<text x="548.4" y="302.8" font-size="15" font-family="sans-serif" text-anchor="middle" fill="#111">평원</text>
<circle cx="507.4" cy="286.0" r="11" fill="#5a9367" stroke="#333" stroke-width="1.5"/>
<text x="507.4" y="270.0" font-size="15" font-family="sans-serif" text-anchor="middle" fill="#111">업</text>
<circle cx="425.4" cy="245.0" r="11" fill="#9c7fb0" stroke="#333" stroke-width="1.5"/>
<text x="425.4" y="229.0" font-size="15" font-family="sans-serif" text-anchor="middle" fill="#111">진양</text>
<circle cx="630.4" cy="335.2" r="11" fill="#7aa06a" stroke="#333" stroke-width="1.5"/>
<text x="630.4" y="319.2" font-size="15" font-family="sans-serif" text-anchor="middle" fill="#111">북해</text>
<circle cx="507.4" cy="359.8" r="11" fill="#c98a5e" stroke="#333" stroke-width="1.5"/>
<text x="507.4" y="343.8" font-size="15" font-family="sans-serif" text-anchor="middle" fill="#111">복양</text>
<circle cx="491.0" cy="392.6" r="11" fill="#c98a5e" stroke="#333" stroke-width="1.5"/>
<text x="491.0" y="376.6" font-size="15" font-family="sans-serif" text-anchor="middle" fill="#111">진류</text>
<circle cx="441.8" cy="384.4" r="11" fill="#c0504d" stroke="#333" stroke-width="1.5"/>
<text x="441.8" y="368.4" font-size="15" font-family="sans-serif" text-anchor="middle" fill="#111">낙양</text>
<circle cx="491.0" cy="425.4" r="11" fill="#d0a24c" stroke="#333" stroke-width="1.5"/>
<text x="491.0" y="409.4" font-size="15" font-family="sans-serif" text-anchor="middle" fill="#111">허창</text>
<circle cx="507.4" cy="458.2" r="11" fill="#d0a24c" stroke="#333" stroke-width="1.5"/>
<text x="507.4" y="442.2" font-size="15" font-family="sans-serif" text-anchor="middle" fill="#111">여남</text>
<circle cx="548.4" cy="409.0" r="11" fill="#d0a24c" stroke="#333" stroke-width="1.5"/>
<text x="548.4" y="393.0" font-size="15" font-family="sans-serif" text-anchor="middle" fill="#111">소패</text>
<circle cx="581.2" cy="425.4" r="11" fill="#4c8fb0" stroke="#333" stroke-width="1.5"/>
<text x="581.2" y="409.4" font-size="15" font-family="sans-serif" text-anchor="middle" fill="#111">하비</text>
<circle cx="622.2" cy="392.6" r="11" fill="#4c8fb0" stroke="#333" stroke-width="1.5"/>
<text x="622.2" y="376.6" font-size="15" font-family="sans-serif" text-anchor="middle" fill="#111">낭야</text>
<circle cx="359.8" cy="384.4" r="11" fill="#c0504d" stroke="#333" stroke-width="1.5"/>
<text x="359.8" y="368.4" font-size="15" font-family="sans-serif" text-anchor="middle" fill="#111">장안</text>
<circle cx="310.6" cy="335.2" r="11" fill="#8a7d5a" stroke="#333" stroke-width="1.5"/>
<text x="310.6" y="319.2" font-size="15" font-family="sans-serif" text-anchor="middle" fill="#111">안정</text>
<circle cx="277.8" cy="400.8" r="11" fill="#8a7d5a" stroke="#333" stroke-width="1.5"/>
<text x="277.8" y="384.8" font-size="15" font-family="sans-serif" text-anchor="middle" fill="#111">천수</text>
<circle cx="220.4" cy="318.8" r="11" fill="#8a7d5a" stroke="#333" stroke-width="1.5"/>
<text x="220.4" y="302.8" font-size="15" font-family="sans-serif" text-anchor="middle" fill="#111">무위</text>
<circle cx="187.6" cy="384.4" r="11" fill="#8a7d5a" stroke="#333" stroke-width="1.5"/>
<text x="187.6" y="368.4" font-size="15" font-family="sans-serif" text-anchor="middle" fill="#111">금성</text>
<circle cx="310.6" cy="466.4" r="11" fill="#b05f8f" stroke="#333" stroke-width="1.5"/>
<text x="310.6" y="450.4" font-size="15" font-family="sans-serif" text-anchor="middle" fill="#111">한중</text>
<circle cx="277.8" cy="499.2" r="11" fill="#b05f8f" stroke="#333" stroke-width="1.5"/>
<text x="277.8" y="483.2" font-size="15" font-family="sans-serif" text-anchor="middle" fill="#111">재동</text>
<circle cx="236.8" cy="540.2" r="11" fill="#b05f8f" stroke="#333" stroke-width="1.5"/>
<text x="236.8" y="524.2" font-size="15" font-family="sans-serif" text-anchor="middle" fill="#111">성도</text>
<circle cx="310.6" cy="564.8" r="11" fill="#b05f8f" stroke="#333" stroke-width="1.5"/>
<text x="310.6" y="548.8" font-size="15" font-family="sans-serif" text-anchor="middle" fill="#111">강주</text>
<circle cx="368.0" cy="548.4" r="11" fill="#b05f8f" stroke="#333" stroke-width="1.5"/>
<text x="368.0" y="532.4" font-size="15" font-family="sans-serif" text-anchor="middle" fill="#111">영안</text>
<circle cx="261.4" cy="638.6" r="11" fill="#b05f8f" stroke="#333" stroke-width="1.5"/>
<text x="261.4" y="622.6" font-size="15" font-family="sans-serif" text-anchor="middle" fill="#111">건녕</text>
<circle cx="212.2" cy="687.8" r="11" fill="#b05f8f" stroke="#333" stroke-width="1.5"/>
<text x="212.2" y="671.8" font-size="15" font-family="sans-serif" text-anchor="middle" fill="#111">운남</text>
<circle cx="450.0" cy="450.0" r="11" fill="#5aa0a0" stroke="#333" stroke-width="1.5"/>
<text x="450.0" y="434.0" font-size="15" font-family="sans-serif" text-anchor="middle" fill="#111">완</text>
<circle cx="425.4" cy="474.6" r="11" fill="#5aa0a0" stroke="#333" stroke-width="1.5"/>
<text x="425.4" y="458.6" font-size="15" font-family="sans-serif" text-anchor="middle" fill="#111">신야</text>
<circle cx="433.6" cy="507.4" r="11" fill="#5aa0a0" stroke="#333" stroke-width="1.5"/>
<text x="433.6" y="491.4" font-size="15" font-family="sans-serif" text-anchor="middle" fill="#111">양양</text>
<circle cx="409.0" cy="548.4" r="11" fill="#5aa0a0" stroke="#333" stroke-width="1.5"/>
<text x="409.0" y="532.4" font-size="15" font-family="sans-serif" text-anchor="middle" fill="#111">강릉</text>
<circle cx="376.2" cy="581.2" r="11" fill="#5aa0a0" stroke="#333" stroke-width="1.5"/>
<text x="376.2" y="565.2" font-size="15" font-family="sans-serif" text-anchor="middle" fill="#111">무릉</text>
<circle cx="450.0" cy="605.8" r="11" fill="#5aa0a0" stroke="#333" stroke-width="1.5"/>
<text x="450.0" y="589.8" font-size="15" font-family="sans-serif" text-anchor="middle" fill="#111">장사</text>
<circle cx="450.0" cy="663.2" r="11" fill="#5aa0a0" stroke="#333" stroke-width="1.5"/>
<text x="450.0" y="647.2" font-size="15" font-family="sans-serif" text-anchor="middle" fill="#111">계양</text>
<circle cx="392.6" cy="638.6" r="11" fill="#5aa0a0" stroke="#333" stroke-width="1.5"/>
<text x="392.6" y="622.6" font-size="15" font-family="sans-serif" text-anchor="middle" fill="#111">영릉</text>
<circle cx="540.2" cy="466.4" r="11" fill="#8a7d5a" stroke="#333" stroke-width="1.5"/>
<text x="540.2" y="450.4" font-size="15" font-family="sans-serif" text-anchor="middle" fill="#111">수춘</text>
<circle cx="540.2" cy="507.4" r="11" fill="#8a7d5a" stroke="#333" stroke-width="1.5"/>
<text x="540.2" y="491.4" font-size="15" font-family="sans-serif" text-anchor="middle" fill="#111">여강</text>
<circle cx="605.8" cy="491.0" r="11" fill="#8a7d5a" stroke="#333" stroke-width="1.5"/>
<text x="605.8" y="475.0" font-size="15" font-family="sans-serif" text-anchor="middle" fill="#111">건업</text>
<circle cx="646.8" cy="523.8" r="11" fill="#8a7d5a" stroke="#333" stroke-width="1.5"/>
<text x="646.8" y="507.8" font-size="15" font-family="sans-serif" text-anchor="middle" fill="#111">오</text>
<circle cx="671.4" cy="564.8" r="11" fill="#8a7d5a" stroke="#333" stroke-width="1.5"/>
<text x="671.4" y="548.8" font-size="15" font-family="sans-serif" text-anchor="middle" fill="#111">회계</text>
<circle cx="507.4" cy="540.2" r="11" fill="#8a7d5a" stroke="#333" stroke-width="1.5"/>
<text x="507.4" y="524.2" font-size="15" font-family="sans-serif" text-anchor="middle" fill="#111">시상</text>
</svg>
